# xmcd
#
# Track frame offsets:
#	150
#	24222
#	58463
#	84773
#	111316
#	134901
#	153173
#	174679
#	208059
#	238234
#
# Disc length: 3535 seconds
#
# Revision: 1
# Processed by: cddbd v1.5.2PL0 Copyright (c) Steve Scherf et al.
# Submitted via: SynApp - FreeCDDB Version: 2.3
#
DISCID=8c0dcd0a
DTITLE=Ever Green - Ever Green
DYEAR=1998
DGENRE=Schlager
TTITLE0=Sei lieb zu mir
TTITLE1=Ich liebe die Sonne, den Mond und die Sterne
TTITLE2=Bei Dir war es immer so schön
TTITLE3=Ein Freund, ein guter Freund
TTITLE4=Ich tanze mit Dir in den Himmel hinein
TTITLE5=Auf wiederseh`n
TTITLE6=Illusion
TTITLE7=Es war einmal eine Liebe
TTITLE8=Frühling in Sorrent
TTITLE9=Ich weiß, es wird einmal ein Wunder gescheh´n
EXTD=
EXTT0=
EXTT1=
EXTT2=
EXTT3=
EXTT4=
EXTT5=
EXTT6=
EXTT7=
EXTT8=
EXTT9=
PLAYORDER=
